<svg width="72" height="63" viewBox="0 0 72 63" fill="none" xmlns="http://www.w3.org/2000/svg">
<path d="M20.3542 0.00395258C37.567 -0.00131753 54.7809 -0.00131753 71.9958 0.00395258C72.0011 5.55745 72.0011 11.11 71.9958 16.6616C54.7826 16.6668 37.5687 16.6668 20.3542 16.6616C20.3487 11.1081 20.3487 5.55553 20.3542 0.00395258Z" fill="#02A6C2"/>
<path d="M0.0215997 22.9285C5.57488 22.8998 11.1291 22.8998 16.6843 22.9285C16.7131 28.4715 16.7131 34.0154 16.6843 39.5603C11.1294 39.5888 5.57512 39.5893 0.0215997 39.5617C-0.00719989 34.0178 -0.00719989 28.4734 0.0215997 22.9285Z" fill="#5FCADE"/>
<path d="M20.3676 22.9286C32.7915 22.9022 45.2145 22.9022 57.6367 22.9286C57.6631 28.4715 57.6631 34.0154 57.6367 39.5603C45.2131 39.5862 32.79 39.5862 20.3676 39.5603C20.3417 34.0171 20.3417 28.4732 20.3676 22.9286Z" fill="#5FCADE"/>
<path d="M20.3828 45.8582C25.9268 45.7981 31.4697 45.7981 37.0117 45.8582C37.0693 51.3882 37.0702 56.9209 37.0142 62.4562C31.4703 62.5108 25.9275 62.5098 20.3857 62.4533C20.3281 56.9238 20.3272 51.3921 20.3828 45.8582Z" fill="#ABEBF4"/>
</svg>
