<svg width="72" height="82" viewBox="0 0 72 82" fill="none" xmlns="http://www.w3.org/2000/svg">
<path d="M35.9999 67.0913C23.6365 67.0913 13.5967 57.0515 13.5967 44.6881C13.5967 32.669 33.8772 11.4419 34.7377 10.5527L35.7991 9.43396L36.8891 10.524C37.7784 11.4132 58.4031 32.6403 58.4031 44.6595C58.4031 57.0515 48.3632 67.0913 35.9999 67.0913ZM35.8278 13.7654C34.0493 15.6873 30.3202 19.8467 26.6198 24.7232C20.0509 33.3862 16.5799 40.2706 16.5799 44.6595C16.5799 55.3591 25.3003 64.0794 35.9999 64.0794C46.6995 64.0794 55.4198 55.3591 55.4198 44.6595C55.4198 40.2706 51.8915 33.3862 45.2078 24.7232C41.4501 19.8754 37.6349 15.6873 35.8278 13.7654Z" fill="url(#paint0_linear_322_311)"/>
<path d="M35.9998 74.2626C19.6779 74.2626 6.42529 60.9813 6.42529 44.6881C6.42529 28.7391 28.6851 6.47932 29.6317 5.5614C30.2054 4.98769 31.1807 4.98769 31.7544 5.5614C32.3281 6.1351 32.3281 7.1104 31.7544 7.68411C31.5249 7.91359 9.43725 30.0012 9.43725 44.6881C9.43725 59.3463 21.3703 71.2793 36.0285 71.2793C50.6866 71.2793 62.6197 59.3463 62.6197 44.6881C62.6197 38.6642 58.7185 30.3455 51.3177 20.5638C45.638 13.0769 39.9297 7.39725 39.8723 7.33988C39.2699 6.76618 39.2699 5.81956 39.8723 5.21717C40.446 4.61478 41.3926 4.61478 41.995 5.21717C42.9703 6.16379 65.6317 28.7104 65.6317 44.6881C65.5743 60.9813 52.3217 74.2626 35.9998 74.2626Z" fill="url(#paint1_linear_322_311)"/>
<path d="M36 81.4339C16.1498 81.4339 0 65.2841 0 45.4339C0 37.2299 4.13068 27.1327 12.2486 15.4578C18.2438 6.85226 24.1243 0.713611 24.3825 0.455444C24.9562 -0.146946 25.9028 -0.146946 26.5052 0.426759C27.1076 1.00046 27.1076 1.94708 26.5339 2.54947C26.4765 2.60684 20.5386 8.80285 14.6869 17.2076C7.02789 28.1941 2.98327 37.9471 2.98327 45.4339C2.98327 63.6204 17.7849 78.4507 36 78.4507C54.2151 78.4507 69.0167 63.6491 69.0167 45.4339C69.0167 37.9471 64.9434 28.1941 57.2271 17.2076C51.3179 8.80285 45.3227 2.60684 45.2653 2.54947C44.6916 1.94708 44.6916 1.00046 45.294 0.426759C45.8964 -0.146946 46.843 -0.146946 47.4167 0.455444C48.4207 1.48811 72 25.9853 72 45.4339C72 65.2841 55.8502 81.4339 36 81.4339Z" fill="url(#paint2_linear_322_311)"/>
<defs>
<linearGradient id="paint0_linear_322_311" x1="35.9999" y1="67.0878" x2="35.9999" y2="9.43043" gradientUnits="userSpaceOnUse">
<stop stop-color="#05AAC5"/>
<stop offset="1" stop-color="#71E0EC"/>
</linearGradient>
<linearGradient id="paint1_linear_322_311" x1="36.0285" y1="74.2591" x2="36.0285" y2="4.76188" gradientUnits="userSpaceOnUse">
<stop stop-color="#05AAC5"/>
<stop offset="1" stop-color="#71E0EC"/>
</linearGradient>
<linearGradient id="paint2_linear_322_311" x1="36" y1="81.4304" x2="36" y2="-0.00351904" gradientUnits="userSpaceOnUse">
<stop stop-color="#05AAC5"/>
<stop offset="1" stop-color="#71E0EC"/>
</linearGradient>
</defs>
</svg>
