<svg width="72" height="72" viewBox="0 0 72 72" fill="none" xmlns="http://www.w3.org/2000/svg">
<path d="M36.0001 32.6038C45.0034 32.6038 52.302 25.3052 52.302 16.3019C52.302 7.2986 45.0034 0 36.0001 0C26.9968 0 19.6982 7.2986 19.6982 16.3019C19.6982 25.3052 26.9968 32.6038 36.0001 32.6038Z" fill="#88BDF3"/>
<path d="M36.0001 72C45.0034 72 52.302 64.7014 52.302 55.6981C52.302 46.6948 45.0034 39.3962 36.0001 39.3962C26.9968 39.3962 19.6982 46.6948 19.6982 55.6981C19.6982 64.7014 26.9968 72 36.0001 72Z" fill="#3075EE"/>
<path d="M55.6979 52.3019C64.7012 52.3019 71.9998 45.0033 71.9998 36C71.9998 26.9967 64.7012 19.6981 55.6979 19.6981C46.6946 19.6981 39.396 26.9967 39.396 36C39.396 45.0033 46.6946 52.3019 55.6979 52.3019Z" fill="#5795F1"/>
<path d="M16.3019 52.3019C25.3052 52.3019 32.6038 45.0033 32.6038 36C32.6038 26.9967 25.3052 19.6981 16.3019 19.6981C7.2986 19.6981 0 26.9967 0 36C0 45.0033 7.2986 52.3019 16.3019 52.3019Z" fill="#205FEC"/>
<path d="M32.1625 32.1623C29.2568 31.4557 26.6015 29.9636 24.487 27.8491C22.3725 25.7346 20.8804 23.0793 20.1738 20.1736C23.0744 20.8909 25.724 22.3866 27.8367 24.4994C29.9495 26.6121 31.4452 29.2617 32.1625 32.1623Z" fill="#134BEF"/>
<path d="M20.1396 51.8604C20.8462 48.9547 22.3383 46.2994 24.4528 44.1849C26.5673 42.0704 29.2227 40.5782 32.1283 39.8717C31.411 42.7722 29.9153 45.4218 27.8026 47.5346C25.6898 49.6474 23.0402 51.1431 20.1396 51.8604Z" fill="#0932E8"/>
<path d="M39.8379 39.8378C42.7436 40.5443 45.3989 42.0364 47.5134 44.1509C49.6279 46.2654 51.12 48.9208 51.8266 51.8264C48.926 51.1092 46.2764 49.6134 44.1637 47.5007C42.0509 45.3879 40.5552 42.7383 39.8379 39.8378Z" fill="#164BEA"/>
<path d="M51.8603 20.1396C51.1537 23.0453 49.6616 25.7007 47.5471 27.8152C45.4326 29.9297 42.7773 31.4218 39.8716 32.1283C40.5889 29.2278 42.0846 26.5782 44.1974 24.4654C46.3101 22.3526 48.9597 20.8569 51.8603 20.1396Z" fill="#3170F1"/>
</svg>
