<svg width="50" height="50" viewBox="0 0 50 50" fill="none" xmlns="http://www.w3.org/2000/svg">
<g clip-path="url(#clip0_322_390)">
<path d="M0 15.6249C0.000762989 19.2412 1.25536 22.7453 3.55003 25.5403C5.8447 28.3353 9.03747 30.2482 12.5844 30.9531C12.7864 28.7141 13.361 26.5246 14.2844 24.4749C11.5469 23.5499 9.7875 21.4499 9.375 18.4687H7.8125V17.1374H9.26875V15.7812C9.26875 15.6375 9.26875 15.4906 9.28125 15.3593H7.8125V14.0249H9.40938C10.1125 10.1249 13.1656 7.81245 17.7531 7.81245C18.7406 7.81245 19.5969 7.90932 20.3125 8.07807V10.3687C19.4767 10.1827 18.6217 10.0967 17.7656 10.1124C14.8938 10.1124 12.9594 11.5687 12.3469 14.0249H18.3375V15.3593H12.15C12.1406 15.5031 12.1406 15.6624 12.1406 15.8187V17.1374H18.3375V18.4718H12.2812C12.65 20.3531 13.7437 21.6906 15.4219 22.3124C17.0673 19.5873 19.3302 17.2871 22.028 15.5973C24.7259 13.9075 27.7831 12.8754 30.9531 12.5843C30.1867 8.78905 28.039 5.41328 24.926 3.11093C21.813 0.808574 17.9563 -0.256495 14.103 0.122031C10.2497 0.500557 6.67394 2.29574 4.06848 5.15983C1.46301 8.02393 0.0132405 11.7531 0 15.6249ZM50 32.8125C50 37.3709 48.1892 41.7426 44.9659 44.9659C41.7426 48.1891 37.3709 50 32.8125 50C28.2541 50 23.8824 48.1891 20.6591 44.9659C17.4358 41.7426 15.625 37.3709 15.625 32.8125C15.625 28.254 17.4358 23.8823 20.6591 20.6591C23.8824 17.4358 28.2541 15.6249 32.8125 15.6249C37.3709 15.6249 41.7426 17.4358 44.9659 20.6591C48.1892 23.8823 50 28.254 50 32.8125ZM25.7812 36.9437C25.9969 39.5531 28.1125 41.5843 31.9187 41.825V43.75H33.6063V41.8125C37.5406 41.5437 39.8438 39.5 39.8438 36.5312C39.8438 33.8281 38.0844 32.4375 34.9375 31.7187L33.6063 31.4062V26.1687C35.2938 26.3562 36.3688 27.2531 36.625 28.4968H39.5875C39.3688 25.9843 37.1531 24.0187 33.6063 23.8031V21.875H31.9187V23.8406C28.5562 24.1625 26.2688 26.1281 26.2688 28.9093C26.2688 31.3687 27.9688 32.9343 30.8 33.575L31.9187 33.8406V39.4031C30.1875 39.1531 29.0438 38.2281 28.7844 36.9437H25.7812ZM31.9062 31.0218C30.2437 30.6468 29.3438 29.8843 29.3438 28.7343C29.3438 27.4531 30.3156 26.4874 31.9187 26.2062V31.0187H31.9031L31.9062 31.0218ZM33.85 34.2843C35.8656 34.7374 36.7969 35.4718 36.7969 36.7718C36.7969 38.2531 35.6406 39.2718 33.6094 39.4593V34.2281L33.85 34.2843Z" fill="white"/>
</g>
<defs>
<clipPath id="clip0_322_390">
<rect width="50" height="50" fill="white"/>
</clipPath>
</defs>
</svg>
