<svg width="50" height="50" viewBox="0 0 50 50" fill="none" xmlns="http://www.w3.org/2000/svg">
<g clip-path="url(#clip0_322_381)">
<path d="M48.4375 26.6125C48.4368 30.984 47.2136 35.2682 44.9059 38.981C42.5983 42.6938 39.2983 45.6872 35.3788 47.623C31.4593 49.5589 27.0765 50.3599 22.7256 49.9357C18.3748 49.5115 14.2293 47.8789 10.7575 45.2225C7.28573 42.566 4.6261 38.9915 3.07912 34.9029C1.53214 30.8142 1.15946 26.3745 2.00321 22.0852C2.84695 17.7959 4.87347 13.828 7.85381 10.63C10.8341 7.43189 14.6495 5.13108 18.8688 3.9875C18.7351 3.52205 18.7114 3.0319 18.7997 2.55574C18.8879 2.07958 19.0855 1.63043 19.3771 1.24375C19.6686 0.857065 20.046 0.543426 20.4795 0.327581C20.913 0.111736 21.3907 -0.000406867 21.875 1.10918e-06H28.125C28.6093 -0.000406867 29.087 0.111736 29.5205 0.327581C29.954 0.543426 30.3314 0.857065 30.6229 1.24375C30.9145 1.63043 31.1121 2.07958 31.2003 2.55574C31.2886 3.0319 31.2649 3.52205 31.1313 3.9875C36.0996 5.33576 40.4862 8.28171 43.6139 12.3707C46.7417 16.4597 48.4367 21.4644 48.4375 26.6125ZM37.1563 14.4094L21.6875 23.2469L12.8438 38.7188L28.3125 29.8813L37.15 14.4125L37.1563 14.4094Z" fill="white"/>
</g>
<defs>
<clipPath id="clip0_322_381">
<rect width="50" height="50" fill="white"/>
</clipPath>
</defs>
</svg>
